DataType=double
version=3
OpenSimVersion=4.4-2022-10-11-798caa840
endheader
time	ground_force_r_vx	ground_force_r_vy	ground_force_r_vz	ground_force_r_px	ground_force_r_py	ground_force_r_pz	ground_force_l_vx	ground_force_l_vy	ground_force_l_vz	ground_force_l_px	ground_force_l_py	ground_force_l_pz	ground_torque_r_x	ground_torque_r_y	ground_torque_r_z	ground_torque_l_x	ground_torque_l_y	ground_torque_l_z
3.665	121.1136894530459	842.8344177515025	-30.94687430760827	1.37873058168881	0	-0.420339029513789	-1.150257122091175	0.8685604549159957	-0.3198463411227032	1.910356688900148	0	-0.5419714001820859	0	2.283428971417067	0	0	-2.12422341938634e-08	0
3.67	125.4698372750397	838.9124029109049	-29.88862610079022	1.379939004630315	0	-0.4215628232710577	-1.771929287843049	1.43518732932549	-0.5847025176407149	1.914654542103025	0	-0.5404836051605295	0	2.074188356183974	0	0	-5.215038889616608e-08	0
3.675	129.809234303555	833.4104478477323	-28.74323481499452	1.381252039047074	0	-0.4229176011030849	-2.834928294770526	2.492995270735493	-1.139878029371375	1.918198527292914	0	-0.5389987602508211	0	1.848037983326044	0	0	-1.467812578148653e-07	0
3.68	134.0371540304324	826.5926632496296	-27.37164363908123	1.382674467363021	0	-0.4244055435507272	-4.641824319642797	4.50600707132914	-2.315019561833548	1.921003194526863	0	-0.5375850003208197	0	1.650681370847053	0	0	-4.431107605284978e-07	0
3.685	138.0910002448931	817.9922696242126	-25.89087445718383	1.384223078376168	0	-0.4260482821453822	-7.565511132682015	8.315966990625451	-4.772323616016877	1.923088767502757	0	-0.5363250631954367	0	1.501838588547187	0	0	-1.333759916732902e-06	0
3.69	141.8254269035011	807.1782686866587	-24.21826998564619	1.385928456909371	0	-0.4278869269664525	-11.60745376763055	15.160410605605	-9.709232255821863	1.92448644942013	0	-0.5353171646669072	0	1.367347198131071	0	0	-3.456760961029204e-06	0
3.695	145.5435935040301	793.5664105782718	-21.97252943709302	1.387783687885478	0	-0.4298642233810108	-14.62859935500228	26.07471177217569	-18.99956760402445	1.925238868099115	0	-0.5346868506461026	0	1.226089075742681	0	0	-1.033570441677512e-06	0
3.7	149.7401071643775	777.1238590692317	-19.8535159856812	1.389742344539537	0	-0.4318922108066309	-4.709614864827417	42.50836122829509	-22.96959777390559	1.925608255064162	0	-0.5346832046000599	0	1.041576700975661	0	0	0.0006850592425990953	0
3.705	153.4905865591144	757.9676483438768	-17.57619804015275	1.391738234970495	0	-0.4338602990534851	9.353710992218355	78.73667989260173	-25.07321017560763	1.926304602721651	0	-0.5346666219309996	0	0.7734717195387475	0	0	0.003197885568638981	0
3.71	156.4809404485416	736.1469878278822	-15.25047636329165	1.393732260559373	0	-0.435691919854536	14.72899863354866	149.7555365149683	-29.17865659741297	1.927017929572903	0	-0.5346522109525106	0	0.4094602884446843	0	0	0.01141908988425655	0
3.715	158.8770334377329	711.726761851322	-13.33929926040159	1.395732441551657	0	-0.437407183925734	3.005795553218016	234.1390846107693	-33.28993835947644	1.927900734759113	0	-0.5348917738768929	0	-0.02275417268482371	0	0	0.03822481080317175	0
3.72	160.2481185290295	684.0466287848814	-11.48782391042071	1.397759258414833	0	-0.4390007021084801	-9.893038665181898	307.6156109777174	-36.39238653108161	1.929442815614672	0	-0.5355967247242402	0	-0.4040454715055581	0	0	0.1069596382956632	0
3.725	160.05664262387	652.381453016794	-9.456115140681462	1.399791210856578	0	-0.4403595905554172	-20.14392488022551	363.6538888864768	-36.6228156989005	1.931696371534129	0	-0.5367579087269655	0	-0.6645253930016963	0	0	0.2124846453426557	0
3.73	158.5574705912266	617.9281539377325	-7.441602295932307	1.401772998721887	0	-0.441355919509124	-32.8794905568141	403.0054570003001	-35.35339769250004	1.934214900970307	0	-0.5380965912676792	0	-0.8294787927428882	0	0	0.3195865989432605	0
3.735	156.3004582687612	581.4173089608307	-4.951279133568327	1.403743159801445	0	-0.4419747764282232	-45.03181220942945	433.4621378936366	-32.28117543872661	1.937775951767456	0	-0.5400536302648458	0	-0.9281726238350059	0	0	0.4505521855161945	0
3.74	152.522096246201	540.5261727162422	-1.893942145901643	1.405898238465837	0	-0.4423213882258364	-57.03724658754069	467.6491330410736	-28.40415934509484	1.943904440712908	0	-0.5435257458317266	0	-0.9700175365407442	0	0	0.586457711198328	0
3.745	146.6174666411283	493.3271585073593	1.346484335176782	1.408432292740424	0	-0.4424445581892847	-69.66421760002177	503.6898680843243	-22.91579015076227	1.951573742894084	0	-0.5475085907795644	0	-0.9614895243843857	0	0	0.5106603966959398	0
3.75	139.0696898996991	441.6824468848132	4.750811408385282	1.411415854578486	0	-0.4422379012132442	-80.70731893263624	533.6367012009101	-16.97351820823998	1.959346566140825	0	-0.5506444218908696	0	-0.9214979645098156	0	0	0.164039954169958	0
3.755	129.4776992587637	383.6243093257639	7.798811214997212	1.415298311264956	0	-0.4418861645351836	-90.58306809919323	557.9197306147903	-12.02871297318216	1.967306913014297	0	-0.5527839195223723	0	-0.7987177033317607	0	0	-0.02553318584050146	0
3.76	118.9298615763788	320.0330879893365	9.960551164978771	1.420579230247338	0	-0.4413633239306148	-100.5984057245255	582.0336568264315	-7.100894974729806	1.975843802089042	0	-0.5545755084861157	0	-0.5794427636470569	0	0	0.2578108219223676	0
3.765	105.1271377183828	257.331097660032	11.29329426804218	1.427599027625527	0	-0.4406088390490263	-110.5869229510474	605.877739001078	-1.549538475489929	1.984320373811175	0	-0.5561145611408077	0	-0.3069463945099393	0	0	0.8154303092364228	0
3.77	85.34093932010347	200.2241109748139	11.47594138184802	1.436713620451652	0	-0.4394927866681888	-120.0771951295726	627.7546045314596	3.474982768753188	1.992352059083739	0	-0.5570641622141206	0	-0.04561305342313915	0	0	1.606493971842374	0
3.775	72.19003391311315	174.6094327732871	11.15019022675173	1.439451815396607	0	-0.4388503011434728	-128.5199639760816	646.3508352215896	8.496860135107445	1.999394943633132	0	-0.5574500596019464	0	0.0008588010942496282	0	0	2.520895681720308	0
3.78	70.30082512633057	162.3424071887626	9.763319449967264	1.440071293353494	0	-0.4388982020071961	-135.5538609352714	661.715092587708	14.05761731076415	2.005167460663729	0	-0.5575961470155688	0	2.438401196691586e-05	0	0	3.309126101146862	0
3.785	67.9683493008262	156.9032954169605	8.360928920676393	1.440710397307141	0	-0.4389379685359074	-141.266875567256	676.9685148832295	19.78697222599526	2.010009143974286	0	-0.557740326000972	0	4.192566025906785e-06	0	0	3.957734250589709	0
3.79	53.33590741558076	146.3963415987004	7.425715479601243	1.441238943356144	0	-0.4389481055888944	-145.2464741625232	693.460890981341	25.5882246704053	2.013897919335285	0	-0.5579540372811826	0	1.406466054731936e-07	0	0	4.452316374139308	0
3.795	40.71027192431163	127.8781005277404	5.789876056905475	1.442039330523302	0	-0.438957285065269	-147.4565644822215	710.9332024284851	31.5335484835045	2.016826171870401	0	-0.5582495802974181	0	6.094715843119047e-10	0	0	4.745843306660674	0
3.8	33.20897831786521	106.3418868981025	3.175138944221641	1.443122116158744	0	-0.4389889518741127	-148.332517703578	728.8240099500141	37.28797368412868	2.019164839368915	0	-0.5585556122268942	0	1.024069717914244e-12	0	0	4.967895197860813	0
3.805	18.38705216161635	78.78072259174104	2.607975971897228	1.444140779635443	0	-0.4389528038708064	-148.1372074396804	748.1073527454216	41.87545148579074	2.021109199334666	0	-0.5588173774804912	0	-1.77635683940025e-15	0	0	5.210527353986848	0
3.81	-5.122472344690529	39.20156614038303	4.370456147355107	1.444894374741016	0	-0.4387972113519542	-146.5631498225334	771.4003220134751	45.71751213848343	2.022143441336375	0	-0.5591027959454692	0	0	0	0	5.101287732419706	0
3.815	-0.2443913052779063	0.2796284661718436	0.07558132285596786	1.446232539605189	0	-0.4387532476512345	-144.0918142648885	796.8634110272272	48.96369435906406	2.021942833091825	0	-0.5594568469640155	0	0	0	0	4.430466196825364	0
3.82	0.00505139959335644	-0.005155384698956008	-0.001425970267146981	1.450375550141923	0	-0.4393232224245986	-141.3039079168823	816.3552484096809	50.78272230139883	2.021379272323789	0	-0.5597933122718468	0	-4.336808689942018e-19	0	0	3.729685344184929	0
3.825	0.04753363515169473	-0.04619383596624405	-0.01390847862623162	1.455439368940061	0	-0.4400961544934004	-138.0008099982051	827.5652399751915	51.4932753480557	2.021210141464041	0	-0.5600569999485007	0	0	0	0	3.449459088815061	0
3.83	0.1053976232709076	-0.09425710614257286	-0.02370672916385899	1.461196946027623	0	-0.4408650160479562	-133.7824725666738	835.7600948297537	51.73736944312594	2.021143342810378	0	-0.560278034770436	0	1.387778780781446e-17	0	0	3.324269274757768	0
3.835	0.005668448684009619	-0.004540750081083385	-0.0007789144540004062	1.468146467400348	0	-0.4414114493850053	-128.9956759610355	842.9933359384812	51.39178383697045	2.020878002851178	0	-0.5604758923157873	0	2.168404344971009e-19	0	0	3.158039407364953	0
3.84	0.0003566278280535015	-0.0002627703088249034	-3.339788487274793e-05	1.47636345585035	0	-0.4418277157087174	-124.0280926831683	847.6652613884124	50.55767133752813	2.020484507440337	0	-0.5606562913930108	0	-1.355252715606881e-20	0	0	3.046692034697003	0
3.845	7.58736058900363e-05	-5.24267853385696e-05	-5.419829671742701e-06	1.485629415967914	0	-0.442181902151316	-118.9078619615539	849.3875559051326	49.40718260755008	2.020108140999763	0	-0.5608229095466905	0	0	0	0	2.974905806781962	0
